<svg width="24" height="26" viewBox="0 0 24 26" fill="none" xmlns="http://www.w3.org/2000/svg">
<path d="M24.0002 13.1516C24.0002 12.1448 23.9185 11.4101 23.7417 10.6482H12.2451V15.1924H18.9934C18.8574 16.3216 18.1227 18.0223 16.49 19.1651L16.4671 19.3173L20.1021 22.1333L20.354 22.1584C22.6668 20.0223 24.0002 16.8794 24.0002 13.1516Z" fill="#4285F4"/>
<path d="M12.2445 25.1243C15.5505 25.1243 18.326 24.0358 20.3533 22.1583L16.4893 19.165C15.4553 19.8861 14.0676 20.3895 12.2445 20.3895C9.0064 20.3895 6.25812 18.2535 5.27843 15.3011L5.13483 15.3133L1.35509 18.2385L1.30566 18.3759C3.31925 22.3759 7.45531 25.1243 12.2445 25.1243Z" fill="#34A853"/>
<path d="M5.27886 15.3012C5.02036 14.5393 4.87076 13.7229 4.87076 12.8795C4.87076 12.0359 5.02036 11.2196 5.26526 10.4577L5.25841 10.2954L1.43131 7.32324L1.30609 7.3828C0.476196 9.04269 0 10.9067 0 12.8795C0 14.8522 0.476196 16.7161 1.30609 18.376L5.27886 15.3012Z" fill="#FBBC05"/>
<path d="M12.2445 5.36918C14.5438 5.36918 16.0947 6.36238 16.9791 7.19236L20.4349 3.81819C18.3125 1.84541 15.5505 0.634521 12.2445 0.634521C7.45531 0.634521 3.31925 3.3828 1.30566 7.38277L5.26483 10.4576C6.25812 7.50526 9.0064 5.36918 12.2445 5.36918Z" fill="#EB4335"/>
</svg>
