<svg width="201" height="118" viewBox="0 0 201 118" fill="none" xmlns="http://www.w3.org/2000/svg">
<path d="M84.6619 96.3229L81.2877 99.7162C81.1189 99.2434 80.8883 98.8186 80.596 98.4418C80.3034 98.0647 79.9744 97.7468 79.6091 97.4878C79.2435 97.2292 78.8469 97.032 78.4195 96.8969C77.9919 96.7617 77.5533 96.6944 77.1037 96.6944C76.4737 96.6944 75.8806 96.8239 75.3239 97.0828C74.7672 97.3418 74.2835 97.7048 73.8731 98.1719C73.4623 98.6387 73.139 99.1933 72.9031 99.8347C72.6673 100.476 72.5488 101.185 72.5488 101.962C72.5488 102.592 72.6669 103.183 72.9031 103.734C73.1394 104.286 73.4623 104.77 73.8731 105.186C74.2835 105.603 74.7672 105.929 75.3239 106.165C75.8806 106.402 76.4737 106.52 77.1037 106.52C77.5533 106.52 77.9866 106.458 78.403 106.334C78.819 106.21 79.21 106.033 79.5756 105.803C79.9409 105.572 80.2674 105.29 80.554 104.958C80.8407 104.626 81.0741 104.258 81.2542 103.852L84.6284 107.246C84.2007 107.853 83.7089 108.4 83.1522 108.883C82.5954 109.367 81.9936 109.778 81.347 110.116C80.7 110.453 80.0195 110.709 79.3056 110.884C78.5912 111.058 77.8572 111.146 77.1037 111.146C75.8327 111.146 74.6375 110.906 73.5187 110.428C72.3993 109.95 71.4209 109.294 70.5832 108.461C69.7451 107.629 69.0844 106.655 68.6007 105.541C68.1169 104.427 67.8751 103.234 67.8751 101.962C67.8751 100.577 68.1169 99.2829 68.6007 98.0784C69.084 96.8743 69.7451 95.8243 70.5832 94.9299C71.4209 94.0349 72.3993 93.3289 73.5187 92.811C74.6378 92.2934 75.8327 92.0344 77.1037 92.0344C77.8572 92.0344 78.5969 92.13 79.3221 92.3213C80.0477 92.5128 80.7395 92.7912 81.3974 93.1567C82.0553 93.5226 82.6628 93.9703 83.2195 94.4992C83.7762 95.0284 84.2571 95.6363 84.6619 96.3225V96.3229Z" fill="#A100FF"/>
<path d="M104.131 110.808H103.018L101.229 108.326C100.791 108.72 100.327 109.089 99.8379 109.432C99.3488 109.776 98.8337 110.073 98.2939 110.327C97.7541 110.58 97.2002 110.78 96.6322 110.926C96.0642 111.072 95.4878 111.146 94.9029 111.146C93.6318 111.146 92.4366 110.932 91.3179 110.504C90.1984 110.077 89.22 109.455 88.3823 108.639C87.5443 107.823 86.8835 106.824 86.3998 105.642C85.9161 104.46 85.6742 103.116 85.6742 101.607C85.6742 100.2 85.9161 98.9086 86.3998 97.7327C86.8832 96.5564 87.5443 95.5463 88.3823 94.702C89.22 93.8578 90.1984 93.2023 91.3179 92.7355C92.4369 92.2684 93.6318 92.0348 94.9029 92.0348C95.4878 92.0348 96.0667 92.1082 96.6404 92.2542C97.214 92.4007 97.7711 92.6032 98.3109 92.8621C98.8506 93.1211 99.3651 93.4252 99.8548 93.7738C100.344 94.1227 100.802 94.4999 101.229 94.9049L103.017 92.7609H104.131V110.808L104.131 110.808ZM99.492 101.607C99.492 100.977 99.3707 100.366 99.1292 99.7751C98.8873 99.1845 98.5584 98.661 98.1423 98.2055C97.7256 97.7493 97.2394 97.3838 96.683 97.1079C96.1259 96.8323 95.5322 96.6944 94.9029 96.6944C94.2735 96.6944 93.6798 96.8016 93.1231 97.0151C92.5663 97.2289 92.0826 97.5443 91.6722 97.9606C91.2615 98.3773 90.9381 98.892 90.7023 99.5052C90.466 100.119 90.3479 100.82 90.3479 101.607C90.3479 102.395 90.466 103.096 90.7023 103.709C90.9385 104.323 91.2615 104.838 91.6722 105.254C92.0826 105.671 92.5663 105.986 93.1231 106.199C93.6798 106.413 94.2728 106.52 94.9029 106.52C95.5329 106.52 96.1259 106.382 96.683 106.107C97.2394 105.831 97.7256 105.465 98.1423 105.009C98.5584 104.554 98.8873 104.03 99.1292 103.439C99.3711 102.848 99.492 102.238 99.492 101.608V101.607Z" fill="#A100FF"/>
<path d="M112.246 110.808H107.641V92.7267H108.754L110.273 94.8707C111.015 94.1955 111.859 93.6747 112.804 93.3092C113.748 92.9433 114.727 92.7602 115.739 92.7602H119.805V97.3524H115.739C115.255 97.3524 114.8 97.4427 114.372 97.6227C113.945 97.8029 113.574 98.0506 113.259 98.3653C112.945 98.68 112.696 99.0519 112.517 99.4795C112.337 99.9075 112.247 100.363 112.247 100.847V110.808L112.246 110.808Z" fill="#A100FF"/>
<path d="M139.105 110.808H137.992L136.203 108.326C135.765 108.72 135.301 109.089 134.812 109.432C134.322 109.776 133.808 110.073 133.268 110.327C132.728 110.58 132.174 110.78 131.606 110.926C131.038 111.072 130.461 111.146 129.877 111.146C128.606 111.146 127.411 110.932 126.292 110.504C125.172 110.077 124.194 109.455 123.356 108.639C122.518 107.823 121.857 106.824 121.374 105.642C120.89 104.46 120.648 103.116 120.648 101.607C120.648 100.2 120.89 98.9086 121.374 97.7327C121.857 96.5564 122.518 95.5463 123.356 94.702C124.194 93.8578 125.172 93.2023 126.292 92.7355C127.411 92.2684 128.605 92.0348 129.877 92.0348C130.461 92.0348 131.041 92.1082 131.615 92.2542C132.188 92.4007 132.745 92.6032 133.285 92.8621C133.825 93.1211 134.339 93.4252 134.829 93.7738C135.318 94.1227 135.776 94.4999 136.203 94.9049L137.992 92.7609H139.105V110.808ZM134.466 101.607C134.466 100.977 134.345 100.366 134.103 99.7751C133.861 99.1845 133.532 98.661 133.116 98.2055C132.7 97.7493 132.213 97.3838 131.657 97.1079C131.1 96.8323 130.506 96.6944 129.877 96.6944C129.247 96.6944 128.653 96.8016 128.096 97.0151C127.54 97.2289 127.056 97.5443 126.646 97.9606C126.235 98.3773 125.912 98.892 125.676 99.5052C125.439 100.119 125.321 100.82 125.321 101.607C125.321 102.395 125.439 103.096 125.676 103.709C125.912 104.323 126.235 104.838 126.646 105.254C127.056 105.671 127.54 105.986 128.096 106.199C128.653 106.413 129.246 106.52 129.877 106.52C130.507 106.52 131.1 106.382 131.657 106.107C132.213 105.831 132.7 105.465 133.116 105.009C133.532 104.554 133.861 104.03 134.103 103.439C134.345 102.848 134.466 102.238 134.466 101.608V101.607Z" fill="#A100FF"/>
<path d="M147.22 110.808H142.615V92.7266H143.728L145.247 94.4826C145.989 93.8073 146.83 93.2866 147.769 92.9207C148.708 92.5552 149.689 92.3721 150.713 92.3721C151.815 92.3721 152.856 92.5831 153.834 93.0054C154.813 93.427 155.667 94.007 156.399 94.744C157.13 95.4814 157.706 96.3423 158.128 97.3273C158.549 98.312 158.761 99.3616 158.761 100.476V110.808H154.155V100.476C154.155 100.003 154.065 99.556 153.885 99.1334C153.705 98.7117 153.457 98.3431 153.143 98.0277C152.827 97.7126 152.462 97.4649 152.046 97.285C151.63 97.1051 151.186 97.0147 150.713 97.0147C150.23 97.0147 149.774 97.1051 149.347 97.285C148.919 97.4653 148.548 97.7129 148.233 98.0277C147.919 98.3424 147.671 98.7114 147.491 99.1334C147.311 99.5557 147.221 100.003 147.221 100.476V110.808H147.22Z" fill="#A100FF"/>
<path d="M179.529 108.529C179.529 109.801 179.287 110.993 178.804 112.108C178.32 113.222 177.659 114.196 176.821 115.029C175.983 115.861 175.005 116.52 173.885 117.004C172.766 117.488 171.571 117.73 170.3 117.73L167.989 117.696V113.087L170.267 113.121C170.986 113.121 171.599 113.029 172.106 112.843C172.612 112.657 173.039 112.404 173.388 112.083C173.736 111.762 174.015 111.394 174.223 110.977C174.431 110.561 174.597 110.122 174.721 109.661C174.541 109.953 174.282 110.193 173.945 110.378C173.607 110.564 173.233 110.715 172.823 110.834C172.412 110.952 171.985 111.033 171.54 111.079C171.096 111.123 170.682 111.146 170.3 111.146C169.029 111.146 167.834 110.926 166.715 110.488C165.596 110.049 164.617 109.421 163.78 108.605C162.941 107.789 162.28 106.79 161.797 105.609C161.313 104.427 161.071 103.093 161.071 101.607C161.071 100.246 161.313 98.9796 161.797 97.8086C162.28 96.6383 162.941 95.6254 163.78 94.7698C164.617 93.9146 165.596 93.245 166.715 92.7609C167.834 92.2772 169.029 92.0348 170.3 92.0348C170.885 92.0348 171.464 92.1082 172.038 92.2542C172.612 92.4007 173.168 92.6032 173.708 92.8621C174.248 93.1211 174.762 93.4252 175.252 93.7738C175.741 94.1227 176.199 94.4999 176.627 94.9049L178.415 92.7609H179.528V108.529L179.529 108.529ZM174.89 101.607C174.89 100.977 174.769 100.366 174.527 99.7751C174.285 99.1845 173.956 98.661 173.54 98.2055C173.124 97.7493 172.637 97.3838 172.081 97.1079C171.524 96.8323 170.93 96.6944 170.3 96.6944C169.671 96.6944 169.077 96.8016 168.52 97.0151C167.964 97.2289 167.48 97.5443 167.069 97.9606C166.659 98.3773 166.336 98.892 166.099 99.5052C165.863 100.119 165.745 100.82 165.745 101.607C165.745 102.362 165.863 103.04 166.099 103.642C166.336 104.244 166.659 104.759 167.069 105.187C167.48 105.615 167.964 105.944 168.52 106.174C169.077 106.405 169.67 106.52 170.3 106.52C170.93 106.52 171.524 106.382 172.081 106.107C172.637 105.831 173.124 105.465 173.54 105.009C173.956 104.554 174.285 104.03 174.527 103.439C174.769 102.848 174.89 102.238 174.89 101.608V101.607Z" fill="#A100FF"/>
<path d="M200.5 101.607C200.5 102.957 200.258 104.216 199.774 105.38C199.291 106.545 198.633 107.552 197.8 108.402C196.968 109.252 195.992 109.922 194.873 110.411C193.754 110.901 192.553 111.145 191.271 111.145C190 111.145 188.805 110.901 187.686 110.411C186.566 109.921 185.588 109.252 184.75 108.402C183.912 107.552 183.251 106.545 182.768 105.38C182.284 104.215 182.042 102.957 182.042 101.607C182.042 100.234 182.284 98.9622 182.768 97.7916C183.251 96.6213 183.912 95.6109 184.75 94.7613C185.588 93.9114 186.566 93.2446 187.686 92.7605C188.805 92.2768 190 92.0344 191.271 92.0344C192.553 92.0344 193.754 92.2623 194.873 92.7182C195.992 93.1744 196.967 93.8214 197.8 94.6601C198.632 95.4983 199.291 96.5056 199.774 97.6815C200.258 98.8578 200.5 100.166 200.5 101.607ZM195.86 101.607C195.86 100.864 195.739 100.191 195.498 99.5895C195.256 98.9873 194.927 98.4694 194.511 98.0365C194.094 97.6029 193.608 97.2709 193.051 97.0401C192.494 96.8097 191.901 96.6944 191.271 96.6944C190.642 96.6944 190.048 96.8097 189.491 97.0401C188.935 97.2709 188.451 97.6032 188.04 98.0365C187.63 98.4697 187.307 98.9873 187.07 99.5895C186.834 100.191 186.716 100.864 186.716 101.607C186.716 102.305 186.834 102.952 187.07 103.548C187.307 104.145 187.63 104.663 188.04 105.102C188.451 105.54 188.935 105.887 189.491 106.14C190.048 106.393 190.641 106.519 191.271 106.519C191.901 106.519 192.494 106.401 193.051 106.165C193.608 105.929 194.094 105.597 194.511 105.169C194.927 104.741 195.256 104.223 195.498 103.616C195.74 103.008 195.86 102.339 195.86 101.607Z" fill="#A100FF"/>
<path d="M0.707314 110.6C0.569104 110.462 0.5 110.278 0.5 110.047V93.5881C0.5 93.3577 0.569104 93.1732 0.707314 93.0349C0.845523 92.8966 1.02992 92.8274 1.26016 92.8274H1.84755C2.07778 92.8274 2.26217 92.8966 2.40038 93.0349C2.53859 93.1736 2.6077 93.3577 2.6077 93.5881V94.7986C3.18345 94.0609 3.86886 93.4904 4.66392 93.0867C5.45862 92.6831 6.42045 92.4817 7.5494 92.4817C10.1295 92.4817 11.9725 93.5648 13.0781 95.7318C13.6081 94.7404 14.3855 93.9512 15.4104 93.3634C16.4357 92.7756 17.6161 92.4817 18.9524 92.4817C20.1734 92.4817 21.2734 92.7639 22.2525 93.3284C23.2316 93.8936 24.0031 94.7291 24.5675 95.8352C25.132 96.9419 25.4141 98.325 25.4141 99.9849V110.047C25.4141 110.278 25.345 110.462 25.2067 110.6C25.0685 110.739 24.8841 110.808 24.6539 110.808H24.0662C23.8359 110.808 23.6515 110.739 23.5133 110.6C23.3751 110.462 23.306 110.278 23.306 110.047V100.331C23.306 98.8094 23.0871 97.6278 22.6495 96.7863C22.212 95.9449 21.6359 95.3515 20.9219 95.0057C20.2079 94.6599 19.4361 94.4867 18.6069 94.4867C17.9158 94.4867 17.2131 94.6596 16.4988 95.0057C15.7849 95.3511 15.1915 95.9449 14.7194 96.7863C14.2473 97.6278 14.0111 98.809 14.0111 100.331V110.047C14.0111 110.278 13.9419 110.462 13.8037 110.6C13.6655 110.739 13.4811 110.808 13.2509 110.808H12.6635C12.4333 110.808 12.2489 110.739 12.1107 110.6C11.9725 110.462 11.9034 110.278 11.9034 110.047V100.331C11.9034 98.8094 11.6731 97.6278 11.2123 96.7863C10.7515 95.9449 10.1641 95.3515 9.44978 95.0057C8.73582 94.6599 7.98694 94.4867 7.20387 94.4867C6.51282 94.4867 5.81014 94.6596 5.09583 95.0057C4.38186 95.3511 3.78847 95.9449 3.31637 96.7863C2.84427 97.6278 2.60805 98.7977 2.60805 100.296V110.047C2.60805 110.278 2.53895 110.462 2.40074 110.6C2.26253 110.739 2.07813 110.808 1.8479 110.808H1.26051C1.03027 110.808 0.845878 110.739 0.707669 110.6H0.707314Z" fill="black"/>
<path d="M32.1842 108.958C30.8712 107.494 30.1224 105.575 29.9383 103.201C29.9154 102.855 29.9037 102.394 29.9037 101.818C29.9037 101.242 29.9154 100.781 29.9383 100.434C30.0536 98.8672 30.422 97.4838 31.044 96.285C31.6659 95.0865 32.5241 94.1526 33.6181 93.4844C34.7122 92.8161 36.0082 92.4817 37.5056 92.4817C39.1183 92.4817 40.4888 92.8391 41.6177 93.5535C42.7467 94.268 43.6161 95.2939 44.2268 96.6311C44.8371 97.9679 45.1424 99.5587 45.1424 101.403V101.922C45.1424 102.152 45.0677 102.336 44.9178 102.474C44.768 102.613 44.578 102.682 44.3477 102.682H32.046V103.028C32.0922 104.065 32.3341 105.05 32.7716 105.984C33.2095 106.918 33.8314 107.678 34.6374 108.266C35.4438 108.854 36.4 109.148 37.5056 109.148C38.4964 109.148 39.32 108.998 39.9761 108.699C40.6326 108.399 41.1569 108.071 41.5483 107.713C41.9396 107.356 42.1935 107.085 42.3084 106.9C42.5157 106.601 42.6769 106.422 42.7922 106.364C42.9075 106.307 43.0915 106.278 43.345 106.278H43.8978C44.1051 106.278 44.2836 106.342 44.4334 106.468C44.5832 106.595 44.6464 106.762 44.6234 106.97C44.6005 107.292 44.4218 107.69 44.0879 108.163C43.754 108.635 43.2815 109.102 42.6709 109.563C42.0602 110.024 41.3177 110.405 40.4422 110.704C39.5668 111.004 38.5877 111.154 37.5049 111.154C35.2703 111.154 33.4965 110.421 32.1835 108.958L32.1842 108.958ZM43.0344 100.746V100.607C43.0344 99.4547 42.8154 98.4174 42.3779 97.4955C41.9403 96.5732 41.3068 95.8415 40.4775 95.2996C39.6479 94.758 38.6575 94.4867 37.5056 94.4867C36.3538 94.4867 35.369 94.758 34.551 95.2996C33.7334 95.8412 33.1115 96.5729 32.6852 97.4955C32.259 98.4174 32.046 99.455 32.046 100.607V100.746H43.0347H43.0344Z" fill="black"/>
<path d="M52.5529 110.134C51.5276 109.453 50.7674 108.526 50.272 107.35C49.7767 106.174 49.5292 104.86 49.5292 103.408V93.5878C49.5292 93.3574 49.5983 93.1729 49.7365 93.0346C49.8747 92.8963 50.0591 92.8271 50.2893 92.8271H50.8771C51.1073 92.8271 51.2917 92.8963 51.4299 93.0346C51.5681 93.1733 51.6372 93.3574 51.6372 93.5878V103.235C51.6372 107.177 53.3536 109.148 56.7862 109.148C58.4218 109.148 59.7348 108.624 60.7252 107.575C61.7159 106.526 62.211 105.08 62.211 103.235V93.5878C62.211 93.3574 62.2801 93.1729 62.4183 93.0346C62.5565 92.8963 62.7409 92.8271 62.9711 92.8271H63.5585C63.7891 92.8271 63.9731 92.8963 64.1113 93.0346C64.2496 93.1733 64.3187 93.3574 64.3187 93.5878V110.047C64.3187 110.277 64.2496 110.462 64.1113 110.6C63.9731 110.738 63.7887 110.808 63.5585 110.808H62.9711C62.7409 110.808 62.5565 110.738 62.4183 110.6C62.2801 110.461 62.211 110.277 62.211 110.047V108.422C61.589 109.229 60.8461 109.886 59.9823 110.393C59.1185 110.9 57.9377 111.154 56.4404 111.154C54.8739 111.154 53.5782 110.814 52.5532 110.133L52.5529 110.134Z" fill="black"/>
<path d="M150.32 25.4674C150.32 25.4674 145.206 10.4937 134.041 6.51536C126.787 3.93066 117.544 1.82754 102.633 0.482272C99.7318 0.220486 84.3792 0.206732 80.9486 0.40713C77.7934 0.607527 72.6102 1.25916 72.1096 1.53471C70.9827 2.1359 70.6072 3.38874 71.208 4.54138C71.6086 5.26817 73.0361 5.79422 74.2627 5.61887C79.1205 4.99227 94.3197 4.76683 99.9789 5.24312C105.412 5.71907 112.549 6.99695 114.127 7.79889C116.631 9.07677 117.933 12.7852 117.156 16.4685C116.455 19.9014 114.652 22.1816 112.073 22.9331C110.621 23.359 109.694 23.2588 106.564 22.2815C99.4779 20.1014 84.1786 18.7484 72.2344 19.2748C56.0335 19.9765 43.9391 22.9331 35.9512 28.1198C33.5974 29.6231 31.3687 31.728 30.843 32.9307C29.1154 36.6892 32.4455 47.3636 37.8293 55.4818C39.4568 57.9373 42.4368 60.8438 44.2896 61.8211C49.5729 64.5773 55.7077 63.6501 59.7645 59.5158C60.5909 58.6387 62.0932 57.1104 63.0448 56.0579C66.5755 52.2994 71.183 50.6708 75.3145 51.7229C78.745 52.6 80.2724 53.7276 85.4556 59.29C88.26 62.2967 90.739 63.3742 94.8458 63.3742C99.4282 63.3742 102.258 61.9209 105.087 58.1123C107.641 54.6544 110.07 52.7253 113.075 51.7981C115.454 51.0963 118.709 51.247 121.013 52.1989C123.391 53.1762 125.745 55.0552 127.723 57.5859C129.702 60.0666 130.753 60.9687 132.907 62.0462C136.613 63.9256 141.07 63.8251 144.901 61.8207C147.78 60.2924 151.734 55.8053 154.942 50.3949C155.317 49.762 156.444 47.8642 156.444 47.8642L156.729 47.3368C163.212 35.7257 157.548 32.4964 150.319 25.4667L150.32 25.4674ZM40.6341 42.1518C39.0316 42.1518 37.9048 40.1973 37.8797 37.3659C37.8797 33.5323 39.9582 31.3022 41.9862 33.0309C42.8377 33.7577 43.4635 35.5617 43.4635 37.3155C43.4635 40.0216 42.2115 42.1515 40.6341 42.1515V42.1518ZM79.8969 37.5663C79.7968 39.7714 79.1956 41.1745 78.0938 41.8512C77.1923 42.4023 76.5915 42.2771 75.6399 41.3753C73.9874 39.8219 73.8118 35.6121 75.3395 33.6328C76.6916 31.854 78.1439 32.1295 79.2707 34.3095C79.8969 35.5373 79.972 35.888 79.8969 37.567V37.5663ZM103.409 49.3432C103.284 52.8011 102.834 54.5048 101.481 56.6348C99.0273 60.4434 95.0711 59.9674 92.8675 55.6074C90.9893 51.9491 90.9893 45.76 92.8925 42.0015C93.6438 40.4732 95.2213 38.9197 96.273 38.5937C97.3748 38.2681 98.6017 38.4685 99.7286 39.1949C100.931 39.9718 102.132 41.8759 102.909 44.2814C103.46 46.0352 103.51 46.5115 103.409 49.3428V49.3432ZM142.736 58.662C139.47 58.662 136.823 54.013 136.823 48.2781C136.823 42.5431 139.47 37.8941 142.736 37.8941C146.001 37.8941 148.649 42.5431 148.649 48.2781C148.649 54.013 146.001 58.662 142.736 58.662Z" fill="#A100FF"/>
<path d="M96.1147 44.6575C94.2866 46.587 94.4372 51.8489 96.34 53.2019C97.1915 53.8031 98.2432 53.7029 98.9692 52.9765C99.9208 52.0242 100.321 50.7964 100.321 48.8422C100.321 46.9377 99.8957 45.5847 99.0192 44.6579C98.2929 43.881 96.8407 43.881 96.1147 44.6579V44.6575Z" fill="#A100FF"/>
<path d="M141.285 44.1011C139.457 46.0307 139.607 51.2925 141.51 52.6455C142.362 53.2467 143.413 53.1465 144.139 52.4201C145.091 51.4678 145.491 50.24 145.491 48.2858C145.491 46.3813 145.066 45.0283 144.189 44.1015C143.463 43.3246 142.011 43.3242 141.285 44.1011Z" fill="#A100FF"/>
</svg>
