<svg width="151" height="20" viewBox="0 0 151 20" fill="none" xmlns="http://www.w3.org/2000/svg">
<path d="M63.6214 3.29523L61.0908 5.83853C60.9641 5.4842 60.7912 5.16582 60.572 4.88341C60.3525 4.60073 60.1058 4.36246 59.8318 4.16837C59.5576 3.97454 59.2601 3.82673 58.9396 3.72545C58.6189 3.62417 58.2899 3.57367 57.9528 3.57367C57.4802 3.57367 57.0354 3.67072 56.6179 3.86482C56.2004 4.05891 55.8376 4.331 55.5298 4.68111C55.2217 5.03096 54.9792 5.44665 54.8023 5.92738C54.6254 6.40812 54.5366 6.93963 54.5366 7.52164C54.5366 7.99418 54.6251 8.4371 54.8023 8.85014C54.9795 9.26345 55.2217 9.62651 55.5298 9.93828C55.8376 10.2506 56.2004 10.4949 56.6179 10.6721C57.0354 10.8493 57.4802 10.9378 57.9528 10.9378C58.2899 10.9378 58.6149 10.8916 58.9272 10.7987C59.2392 10.7059 59.5325 10.5729 59.8067 10.4002C60.0806 10.2273 60.3255 10.0163 60.5405 9.76746C60.7555 9.51863 60.9305 9.24229 61.0656 8.93846L63.5963 11.4818C63.2755 11.9374 62.9066 12.3467 62.4891 12.7093C62.0715 13.0721 61.6202 13.3799 61.1352 13.6329C60.65 13.886 60.1396 14.078 59.6041 14.2086C59.0684 14.3395 58.5178 14.4048 57.9528 14.4048C56.9995 14.4048 56.1031 14.2255 55.264 13.8672C54.4244 13.5086 53.6906 13.0173 53.0624 12.393C52.4338 11.7689 51.9382 11.0391 51.5754 10.204C51.2126 9.36896 51.0312 8.47493 51.0312 7.52138C51.0312 6.48375 51.2126 5.5138 51.5754 4.61103C51.938 3.70853 52.4338 2.92158 53.0624 2.25124C53.6906 1.58038 54.4244 1.05125 55.264 0.663067C56.1033 0.275145 56.9995 0.0810547 57.9528 0.0810547C58.5178 0.0810547 59.0726 0.152713 59.6166 0.296035C60.1608 0.439621 60.6796 0.648253 61.173 0.922205C61.6664 1.19642 62.1221 1.532 62.5396 1.92838C62.9571 2.32503 63.3178 2.78064 63.6214 3.29496V3.29523Z" fill="#A100FF"/>
<path d="M78.2234 14.1517H77.3883L76.0471 12.2917C75.7181 12.5871 75.3704 12.8631 75.0034 13.1204C74.6366 13.378 74.2503 13.6012 73.8454 13.7913C73.4406 13.9809 73.0252 14.1308 72.5992 14.2403C72.1732 14.3498 71.7408 14.4048 71.3021 14.4048C70.3488 14.4048 69.4524 14.2445 68.6134 13.924C67.7738 13.6036 67.04 13.1374 66.4117 12.526C65.7832 11.9144 65.2876 11.1655 64.9248 10.2799C64.562 9.39406 64.3806 8.38633 64.3806 7.25561C64.3806 6.20132 64.562 5.23323 64.9248 4.35188C65.2873 3.47027 65.7832 2.71319 66.4117 2.0804C67.04 1.44762 67.7738 0.95631 68.6134 0.606467C69.4527 0.256359 70.3488 0.0812988 71.3021 0.0812988C71.7408 0.0812988 72.175 0.136303 72.6052 0.245778C73.0355 0.355517 73.4533 0.507307 73.8581 0.7014C74.263 0.895493 74.6488 1.12343 75.0161 1.38469C75.3828 1.64621 75.7263 1.92889 76.0468 2.23246L77.388 0.625512H78.2231V14.152L78.2234 14.1517ZM74.744 7.25561C74.744 6.78334 74.653 6.3256 74.4719 5.88268C74.2905 5.44002 74.0437 5.04761 73.7317 4.70623C73.4192 4.36432 73.0545 4.09036 72.6372 3.88357C72.2194 3.67705 71.7741 3.57366 71.3021 3.57366C70.8301 3.57366 70.3848 3.65405 69.9673 3.81403C69.5497 3.97427 69.1869 4.21067 68.8791 4.5227C68.5711 4.835 68.3286 5.2208 68.1517 5.68038C67.9745 6.14023 67.8859 6.66566 67.8859 7.25587C67.8859 7.84608 67.9745 8.37151 68.1517 8.83136C68.3288 9.29094 68.5711 9.67701 68.8791 9.98904C69.1869 10.3013 69.5497 10.5375 69.9673 10.6977C70.3848 10.858 70.8296 10.9381 71.3021 10.9381C71.7747 10.9381 72.2194 10.8347 72.6372 10.6282C73.0545 10.4214 73.4192 10.1474 73.7317 9.80553C74.0437 9.46415 74.2905 9.07172 74.4719 8.62907C74.6533 8.18588 74.744 7.72867 74.744 7.25613V7.25561Z" fill="#A100FF"/>
<path d="M84.3097 14.1517H80.8555V0.599854H81.6906L82.8295 2.20681C83.3861 1.70069 84.0189 1.31038 84.7275 1.03643C85.4362 0.762215 86.17 0.624983 86.9292 0.624983H89.9786V4.06683H86.9292C86.5664 4.06683 86.2248 4.13452 85.9043 4.26938C85.5835 4.4045 85.3051 4.59013 85.0692 4.826C84.8333 5.06188 84.6472 5.34059 84.5126 5.66109C84.3774 5.98184 84.31 6.3235 84.31 6.68603V14.1515L84.3097 14.1517Z" fill="#A100FF"/>
<path d="M104.454 14.1517H103.619L102.278 12.2917C101.949 12.5871 101.601 12.8631 101.234 13.1204C100.867 13.378 100.481 13.6012 100.076 13.7913C99.6711 13.9809 99.2554 14.1308 98.8294 14.2403C98.4036 14.3498 97.971 14.4048 97.5326 14.4048C96.5793 14.4048 95.6832 14.2445 94.8439 13.924C94.0043 13.6036 93.2705 13.1374 92.6422 12.526C92.0136 11.9144 91.5178 11.1655 91.1553 10.2799C90.7925 9.39406 90.6111 8.38633 90.6111 7.25561C90.6111 6.20132 90.7925 5.23323 91.1553 4.35188C91.5178 3.47027 92.0136 2.71319 92.6422 2.0804C93.2705 1.44762 94.0043 0.95631 94.8439 0.606467C95.6832 0.256359 96.579 0.0812988 97.5326 0.0812988C97.971 0.0812988 98.4057 0.136303 98.836 0.245778C99.2662 0.355517 99.6837 0.507307 100.089 0.7014C100.493 0.895493 100.879 1.12343 101.247 1.38469C101.613 1.64621 101.957 1.92889 102.278 2.23246L103.619 0.625512H104.454V14.1517ZM100.974 7.25561C100.974 6.78334 100.883 6.3256 100.702 5.88268C100.521 5.44002 100.274 5.04761 99.9619 4.70623C99.6496 4.36432 99.2847 4.09036 98.8675 3.88357C98.4496 3.67705 98.0046 3.57366 97.5323 3.57366C97.0601 3.57366 96.615 3.65405 96.1972 3.81403C95.7799 3.97427 95.4171 4.21067 95.1091 4.5227C94.8013 4.835 94.5588 5.2208 94.3816 5.68038C94.2045 6.14023 94.1159 6.66566 94.1159 7.25587C94.1159 7.84608 94.2045 8.37151 94.3816 8.83136C94.5588 9.29094 94.8013 9.67701 95.1091 9.98904C95.4171 10.3013 95.7799 10.5375 96.1972 10.6977C96.615 10.858 97.0598 10.9381 97.5323 10.9381C98.0049 10.9381 98.4496 10.8347 98.8675 10.6282C99.2847 10.4214 99.6496 10.1474 99.9619 9.80553C100.274 9.46415 100.521 9.07172 100.702 8.62907C100.884 8.18588 100.974 7.72867 100.974 7.25613V7.25561Z" fill="#A100FF"/>
<path d="M110.54 14.1517H107.086V0.599862H107.921L109.06 1.91595C109.617 1.40983 110.247 1.01953 110.952 0.745312C111.656 0.471361 112.392 0.334106 113.16 0.334106C113.986 0.334106 114.767 0.492248 115.501 0.808773C116.234 1.12477 116.875 1.55949 117.424 2.11189C117.972 2.66455 118.404 3.30977 118.721 4.04806C119.037 4.78609 119.195 5.57278 119.195 6.40786V14.1517H115.741V6.40786C115.741 6.05352 115.673 5.71847 115.539 5.40168C115.403 5.08568 115.218 4.80936 114.982 4.57296C114.745 4.33682 114.471 4.15119 114.159 4.01633C113.847 3.88147 113.514 3.81378 113.16 3.81378C112.797 3.81378 112.456 3.88147 112.135 4.01633C111.814 4.15146 111.536 4.33709 111.3 4.57296C111.064 4.80883 110.878 5.08542 110.743 5.40168C110.608 5.71821 110.541 6.05352 110.541 6.40786V14.1517H110.54Z" fill="#A100FF"/>
<path d="M134.772 12.4435C134.772 13.3968 134.59 14.2908 134.228 15.1262C133.865 15.9612 133.369 16.6908 132.741 17.3151C132.112 17.9392 131.379 18.4329 130.539 18.7957C129.7 19.1582 128.804 19.3399 127.85 19.3399L126.117 19.3145V15.8602L127.825 15.8856C128.365 15.8856 128.824 15.8161 129.204 15.6767C129.584 15.5379 129.904 15.3478 130.166 15.1076C130.427 14.867 130.636 14.5907 130.792 14.2787C130.948 13.9666 131.073 13.6377 131.165 13.2918C131.03 13.5113 130.836 13.6906 130.583 13.8294C130.33 13.9687 130.05 14.0824 129.742 14.1713C129.434 14.2596 129.113 14.3207 128.78 14.3546C128.447 14.3881 128.137 14.4051 127.85 14.4051C126.897 14.4051 126.001 14.2406 125.161 13.9116C124.322 13.5827 123.588 13.1125 122.96 12.5009C122.331 11.8893 121.835 11.1404 121.473 10.2548C121.11 9.36895 120.928 8.3694 120.928 7.25587C120.928 6.23543 121.11 5.28639 121.473 4.40874C121.835 3.53162 122.331 2.77243 122.96 2.13118C123.588 1.4902 124.322 0.988312 125.161 0.625512C126.001 0.262975 126.896 0.0812988 127.85 0.0812988C128.288 0.0812988 128.723 0.136303 129.153 0.245778C129.584 0.355517 130.001 0.507307 130.406 0.7014C130.811 0.895493 131.197 1.12343 131.564 1.38469C131.931 1.64621 132.274 1.92889 132.595 2.23246L133.936 0.625512H134.771V12.4438L134.772 12.4435ZM131.292 7.25561C131.292 6.78334 131.201 6.3256 131.02 5.88268C130.839 5.44002 130.592 5.04761 130.28 4.70623C129.968 4.36432 129.603 4.09036 129.185 3.88357C128.768 3.67705 128.323 3.57366 127.85 3.57366C127.378 3.57366 126.933 3.65405 126.515 3.81403C126.098 3.97427 125.735 4.21067 125.427 4.5227C125.119 4.835 124.877 5.2208 124.7 5.68038C124.522 6.14023 124.434 6.66566 124.434 7.25587C124.434 7.82123 124.522 8.32947 124.7 8.78086C124.877 9.23198 125.119 9.61805 125.427 9.93854C125.735 10.2593 126.098 10.506 126.515 10.6789C126.933 10.8516 127.378 10.9381 127.85 10.9381C128.323 10.9381 128.768 10.8347 129.185 10.6282C129.603 10.4214 129.968 10.1474 130.28 9.80553C130.592 9.46415 130.839 9.07172 131.02 8.62907C131.202 8.18588 131.292 7.72867 131.292 7.25613V7.25561Z" fill="#A100FF"/>
<path d="M150.5 7.25563C150.5 8.26787 150.318 9.21083 149.956 10.0835C149.593 10.9569 149.099 11.7116 148.475 12.3486C147.851 12.9853 147.119 13.4875 146.28 13.854C145.44 14.2213 144.54 14.4045 143.578 14.4045C142.625 14.4045 141.729 14.2213 140.889 13.854C140.05 13.4872 139.316 12.9853 138.688 12.3486C138.059 11.7116 137.563 10.9566 137.201 10.0835C136.838 9.21057 136.656 8.26787 136.656 7.25563C136.656 6.22646 136.838 5.27344 137.201 4.39605C137.563 3.51893 138.059 2.7616 138.688 2.12485C139.316 1.48783 140.05 0.988052 140.889 0.625251C141.729 0.262715 142.624 0.0810547 143.578 0.0810547C144.54 0.0810547 145.44 0.251875 146.28 0.593521C147.119 0.935431 147.85 1.42041 148.475 2.04896C149.099 2.67725 149.593 3.4322 149.956 4.31355C150.318 5.19516 150.5 6.17595 150.5 7.25563ZM147.02 7.25563C147.02 6.699 146.929 6.19472 146.748 5.7436C146.567 5.29222 146.32 4.90404 146.008 4.57958C145.696 4.25459 145.331 4.00575 144.913 3.83281C144.496 3.66014 144.051 3.57367 143.578 3.57367C143.106 3.57367 142.661 3.66014 142.243 3.83281C141.826 4.00575 141.463 4.25486 141.155 4.57958C140.847 4.9043 140.605 5.29222 140.428 5.7436C140.25 6.19472 140.162 6.69873 140.162 7.25563C140.162 7.77894 140.25 8.26364 140.428 8.7108C140.605 9.15795 140.847 9.54587 141.155 9.87482C141.463 10.2038 141.826 10.4632 142.243 10.653C142.661 10.8426 143.106 10.9376 143.578 10.9376C144.051 10.9376 144.496 10.849 144.913 10.6718C145.331 10.4947 145.696 10.2461 146.008 9.92534C146.32 9.60484 146.567 9.21665 146.748 8.7613C146.93 8.30568 147.02 7.80406 147.02 7.25563Z" fill="#A100FF"/>
<path d="M0.655485 13.9962C0.551828 13.8922 0.5 13.7542 0.5 13.5815V1.24551C0.5 1.07284 0.551828 0.934545 0.655485 0.830887C0.759143 0.72723 0.897443 0.675398 1.07012 0.675398H1.51066C1.68333 0.675398 1.82163 0.72723 1.92529 0.830887C2.02895 0.934809 2.08077 1.07284 2.08077 1.24551V2.15279C2.51259 1.59986 3.02665 1.17226 3.62294 0.869752C4.21897 0.567241 4.94034 0.41626 5.78705 0.41626C7.72217 0.41626 9.10435 1.22806 9.93361 2.8522C10.3311 2.10915 10.9141 1.51763 11.6828 1.07708C12.4518 0.636538 13.3371 0.41626 14.3393 0.41626C15.255 0.41626 16.0801 0.627796 16.8144 1.05089C17.5487 1.47451 18.1273 2.10069 18.5507 2.92969C18.974 3.75921 19.1856 4.79577 19.1856 6.03993V13.5815C19.1856 13.7542 19.1337 13.8925 19.0301 13.9962C18.9264 14.0998 18.7881 14.1516 18.6154 14.1516H18.1746C18.002 14.1516 17.8637 14.0998 17.76 13.9962C17.6563 13.8922 17.6045 13.7542 17.6045 13.5815V6.29908C17.6045 5.15885 17.4403 4.27326 17.1121 3.64259C16.784 3.01192 16.3519 2.56715 15.8164 2.308C15.281 2.04886 14.7021 1.91902 14.0802 1.91902C13.5619 1.91902 13.0349 2.0486 12.4991 2.308C11.9637 2.56688 11.5186 3.01192 11.1645 3.64259C10.8105 4.27326 10.6333 5.15858 10.6333 6.29908V13.5815C10.6333 13.7542 10.5815 13.8925 10.4778 13.9962C10.3742 14.0998 10.2359 14.1516 10.0632 14.1516H9.62264C9.44997 14.1516 9.31166 14.0998 9.208 13.9962C9.10435 13.8922 9.05252 13.7542 9.05252 13.5815V6.29908C9.05252 5.15885 8.87985 4.27326 8.53424 3.64259C8.18863 3.01192 7.74808 2.56715 7.21234 2.308C6.67687 2.04886 6.11521 1.91902 5.52791 1.91902C5.00962 1.91902 4.48261 2.0486 3.94687 2.308C3.4114 2.56688 2.96635 3.01192 2.61228 3.64259C2.25821 4.27326 2.08104 5.15012 2.08104 6.27316V13.5815C2.08104 13.7542 2.02921 13.8925 1.92555 13.9962C1.8219 14.0998 1.6836 14.1516 1.51092 14.1516H1.07038C0.897705 14.1516 0.759409 14.0998 0.655752 13.9962H0.655485Z" fill="black"/>
<path d="M24.2631 12.7652C23.2783 11.6681 22.7167 10.2296 22.5787 8.45024C22.5615 8.19109 22.5527 7.84547 22.5527 7.41365C22.5527 6.98183 22.5615 6.63623 22.5787 6.37682C22.6651 5.20222 22.9415 4.16537 23.4079 3.26683C23.8744 2.36855 24.518 1.6686 25.3385 1.16777C26.1591 0.666936 27.1311 0.41626 28.2542 0.41626C29.4637 0.41626 30.4915 0.68412 31.3382 1.21959C32.1849 1.75507 32.837 2.52404 33.295 3.52624C33.7528 4.52817 33.9818 5.72049 33.9818 7.10241V7.4914C33.9818 7.66407 33.9257 7.80237 33.8133 7.90577C33.7009 8.00969 33.5584 8.06151 33.3857 8.06151H24.1594V8.32039C24.1941 9.09782 24.3755 9.83638 24.7036 10.5363C25.032 11.236 25.4985 11.8061 26.103 12.2469C26.7078 12.6875 27.4249 12.9078 28.2542 12.9078C28.9972 12.9078 29.6149 12.7954 30.107 12.5709C30.5994 12.3461 30.9926 12.1002 31.2861 11.8323C31.5796 11.5644 31.77 11.3616 31.8562 11.2231C32.0117 10.9986 32.1326 10.8648 32.2191 10.8214C32.3055 10.778 32.4436 10.7566 32.6337 10.7566H33.0483C33.2038 10.7566 33.3376 10.8042 33.45 10.8991C33.5624 10.9941 33.6097 11.1194 33.5925 11.2749C33.5753 11.5168 33.4413 11.8149 33.1908 12.1692C32.9404 12.5233 32.5861 12.8731 32.1281 13.2187C31.6701 13.5643 31.1132 13.8494 30.4566 14.0739C29.8 14.2984 29.0657 14.4108 28.2536 14.4108C26.5777 14.4108 25.2473 13.8621 24.2626 12.765L24.2631 12.7652ZM32.4007 6.61004V6.50639C32.4007 5.64249 32.2365 4.86506 31.9083 4.1741C31.5802 3.48288 31.105 2.93445 30.4831 2.52828C29.8608 2.12237 29.1181 1.91902 28.2542 1.91902C27.3903 1.91902 26.6517 2.12237 26.0382 2.52828C25.425 2.93418 24.9585 3.48261 24.6388 4.1741C24.3191 4.86506 24.1594 5.64276 24.1594 6.50639V6.61004H32.401H32.4007Z" fill="black"/>
<path d="M39.5397 13.6463C38.7708 13.1365 38.2007 12.4411 37.8291 11.56C37.4576 10.6789 37.272 9.69388 37.272 8.60548V1.24529C37.272 1.07261 37.3238 0.934318 37.4275 0.83066C37.5311 0.727003 37.6694 0.675171 37.8421 0.675171H38.2829C38.4556 0.675171 38.5939 0.727003 38.6975 0.83066C38.8012 0.934582 38.853 1.07261 38.853 1.24529V8.47591C38.853 11.4304 40.1403 12.9078 42.7148 12.9078C43.9415 12.9078 44.9262 12.5148 45.669 11.7284C46.4121 10.9423 46.7833 9.85836 46.7833 8.47591V1.24529C46.7833 1.07261 46.8351 0.934318 46.9388 0.83066C47.0425 0.727003 47.1808 0.675171 47.3534 0.675171H47.794C47.9669 0.675171 48.105 0.727003 48.2086 0.83066C48.3123 0.934582 48.3641 1.07261 48.3641 1.24529V13.5813C48.3641 13.754 48.3123 13.8923 48.2086 13.9959C48.105 14.0996 47.9667 14.1514 47.794 14.1514H47.3534C47.1808 14.1514 47.0425 14.0996 46.9388 13.9959C46.8351 13.892 46.7833 13.754 46.7833 13.5813V12.3633C46.3169 12.9681 45.7597 13.4604 45.1118 13.8407C44.464 14.221 43.5784 14.4108 42.4554 14.4108C41.2805 14.4108 40.3087 14.1559 39.54 13.6461L39.5397 13.6463Z" fill="black"/>
</svg>
