<svg width="151" height="20" viewBox="0 0 151 20" fill="none" xmlns="http://www.w3.org/2000/svg">
<path d="M63.6214 3.29523L61.0908 5.83853C60.9641 5.4842 60.7912 5.16582 60.572 4.88341C60.3525 4.60073 60.1058 4.36246 59.8318 4.16837C59.5576 3.97454 59.2601 3.82673 58.9396 3.72545C58.6189 3.62417 58.2899 3.57367 57.9528 3.57367C57.4802 3.57367 57.0354 3.67072 56.6179 3.86482C56.2004 4.05891 55.8376 4.331 55.5298 4.68111C55.2217 5.03096 54.9792 5.44665 54.8023 5.92738C54.6254 6.40812 54.5366 6.93963 54.5366 7.52164C54.5366 7.99418 54.6251 8.4371 54.8023 8.85014C54.9795 9.26345 55.2217 9.62651 55.5298 9.93828C55.8376 10.2506 56.2004 10.4949 56.6179 10.6721C57.0354 10.8493 57.4802 10.9378 57.9528 10.9378C58.2899 10.9378 58.6149 10.8916 58.9272 10.7987C59.2392 10.7059 59.5325 10.5729 59.8067 10.4002C60.0806 10.2273 60.3255 10.0163 60.5405 9.76746C60.7555 9.51863 60.9305 9.24229 61.0656 8.93846L63.5963 11.4818C63.2755 11.9374 62.9066 12.3467 62.4891 12.7093C62.0715 13.0721 61.6202 13.3799 61.1352 13.6329C60.65 13.886 60.1396 14.078 59.6041 14.2086C59.0684 14.3395 58.5178 14.4048 57.9528 14.4048C56.9995 14.4048 56.1031 14.2255 55.264 13.8672C54.4244 13.5086 53.6906 13.0173 53.0624 12.393C52.4338 11.7689 51.9382 11.0391 51.5754 10.204C51.2126 9.36896 51.0312 8.47493 51.0312 7.52138C51.0312 6.48375 51.2126 5.5138 51.5754 4.61103C51.938 3.70853 52.4338 2.92158 53.0624 2.25124C53.6906 1.58038 54.4244 1.05125 55.264 0.663067C56.1033 0.275145 56.9995 0.0810547 57.9528 0.0810547C58.5178 0.0810547 59.0726 0.152713 59.6166 0.296035C60.1608 0.439621 60.6796 0.648253 61.173 0.922205C61.6664 1.19642 62.1221 1.532 62.5396 1.92838C62.9571 2.32503 63.3178 2.78064 63.6214 3.29496V3.29523Z" fill="#A100FF"/>
<path d="M78.2231 14.1518H77.388L76.0468 12.2918C75.7179 12.5871 75.3702 12.8632 75.0031 13.1205C74.6364 13.3781 74.25 13.6013 73.8452 13.7914C73.4403 13.981 73.0249 14.1309 72.5989 14.2404C72.1729 14.3499 71.7406 14.4048 71.3019 14.4048C70.3486 14.4048 69.4522 14.2446 68.6131 13.9241C67.7736 13.6036 67.0398 13.1374 66.4115 12.5261C65.7829 11.9144 65.2874 11.1656 64.9246 10.28C64.5618 9.39412 64.3804 8.38639 64.3804 7.25568C64.3804 6.20139 64.5618 5.23329 64.9246 4.35194C65.2871 3.47033 65.7829 2.71325 66.4115 2.08046C67.0398 1.44768 67.7736 0.956371 68.6131 0.606528C69.4524 0.25642 70.3486 0.0813599 71.3019 0.0813599C71.7406 0.0813599 72.1748 0.136364 72.605 0.245839C73.0352 0.355578 73.453 0.507368 73.8579 0.701461C74.2627 0.895554 74.6485 1.12349 75.0158 1.38475C75.3826 1.64627 75.7261 1.92895 76.0466 2.23252L77.3878 0.625573H78.2228V14.1521L78.2231 14.1518ZM74.7437 7.25568C74.7437 6.7834 74.6528 6.32566 74.4716 5.88274C74.2902 5.44008 74.0435 5.04767 73.7315 4.70629C73.4189 4.36438 73.0543 4.09042 72.637 3.88363C72.2192 3.67711 71.7739 3.57372 71.3019 3.57372C70.8299 3.57372 70.3846 3.65411 69.967 3.81409C69.5495 3.97433 69.1867 4.21074 68.8789 4.52276C68.5708 4.83506 68.3283 5.22086 68.1514 5.68045C67.9743 6.14029 67.8857 6.66572 67.8857 7.25593C67.8857 7.84615 67.9743 8.37157 68.1514 8.83142C68.3286 9.291 68.5708 9.67707 68.8789 9.9891C69.1867 10.3014 69.5495 10.5375 69.967 10.6978C70.3846 10.858 70.8293 10.9381 71.3019 10.9381C71.7744 10.9381 72.2192 10.8348 72.637 10.6282C73.0543 10.4214 73.4189 10.1475 73.7315 9.80559C74.0435 9.46421 74.2902 9.07179 74.4716 8.62913C74.653 8.18594 74.7437 7.72873 74.7437 7.25619V7.25568Z" fill="#A100FF"/>
<path d="M84.3097 14.1518H80.8555V0.599915H81.6906L82.8295 2.20687C83.3861 1.70075 84.0189 1.31044 84.7275 1.03649C85.4362 0.762276 86.17 0.625044 86.9292 0.625044H89.9786V4.06689H86.9292C86.5664 4.06689 86.2248 4.13458 85.9043 4.26944C85.5835 4.40457 85.3051 4.59019 85.0692 4.82606C84.8333 5.06194 84.6472 5.34065 84.5126 5.66115C84.3774 5.9819 84.31 6.32356 84.31 6.68609V14.1515L84.3097 14.1518Z" fill="#A100FF"/>
<path d="M104.454 14.1518H103.619L102.278 12.2918C101.949 12.5871 101.601 12.8632 101.234 13.1205C100.867 13.3781 100.481 13.6013 100.076 13.7914C99.6713 13.981 99.2556 14.1309 98.8296 14.2404C98.4039 14.3499 97.9713 14.4048 97.5328 14.4048C96.5796 14.4048 95.6834 14.2446 94.8441 13.9241C94.0045 13.6036 93.2707 13.1374 92.6424 12.5261C92.0139 11.9144 91.5181 11.1656 91.1555 10.28C90.7927 9.39412 90.6113 8.38639 90.6113 7.25568C90.6113 6.20139 90.7927 5.23329 91.1555 4.35194C91.5181 3.47033 92.0139 2.71325 92.6424 2.08046C93.2707 1.44768 94.0045 0.956371 94.8441 0.606528C95.6834 0.25642 96.5793 0.0813599 97.5328 0.0813599C97.9713 0.0813599 98.406 0.136364 98.8362 0.245839C99.2665 0.355578 99.684 0.507368 100.089 0.701461C100.494 0.895554 100.879 1.12349 101.247 1.38475C101.614 1.64627 101.957 1.92895 102.278 2.23252L103.619 0.625573H104.454V14.1518ZM100.974 7.25568C100.974 6.7834 100.884 6.32566 100.702 5.88274C100.521 5.44008 100.274 5.04767 99.9622 4.70629C99.6499 4.36438 99.285 4.09042 98.8677 3.88363C98.4499 3.67711 98.0049 3.57372 97.5326 3.57372C97.0603 3.57372 96.6153 3.65411 96.1975 3.81409C95.7802 3.97433 95.4174 4.21074 95.1093 4.52276C94.8015 4.83506 94.559 5.22086 94.3819 5.68045C94.2047 6.14029 94.1161 6.66572 94.1161 7.25593C94.1161 7.84615 94.2047 8.37157 94.3819 8.83142C94.559 9.291 94.8015 9.67707 95.1093 9.9891C95.4174 10.3014 95.7802 10.5375 96.1975 10.6978C96.6153 10.858 97.06 10.9381 97.5326 10.9381C98.0051 10.9381 98.4499 10.8348 98.8677 10.6282C99.285 10.4214 99.6499 10.1475 99.9622 9.80559C100.274 9.46421 100.521 9.07179 100.702 8.62913C100.884 8.18594 100.974 7.72873 100.974 7.25619V7.25568Z" fill="#A100FF"/>
<path d="M110.54 14.1517H107.086V0.599862H107.921L109.06 1.91595C109.617 1.40983 110.247 1.01953 110.952 0.745312C111.656 0.471361 112.392 0.334106 113.16 0.334106C113.986 0.334106 114.767 0.492248 115.501 0.808773C116.234 1.12477 116.875 1.55949 117.424 2.11189C117.972 2.66455 118.404 3.30977 118.721 4.04806C119.037 4.78609 119.195 5.57278 119.195 6.40786V14.1517H115.741V6.40786C115.741 6.05352 115.673 5.71847 115.539 5.40168C115.403 5.08568 115.218 4.80936 114.982 4.57296C114.745 4.33682 114.471 4.15119 114.159 4.01633C113.847 3.88147 113.514 3.81378 113.16 3.81378C112.797 3.81378 112.456 3.88147 112.135 4.01633C111.814 4.15146 111.536 4.33709 111.3 4.57296C111.064 4.80883 110.878 5.08542 110.743 5.40168C110.608 5.71821 110.541 6.05352 110.541 6.40786V14.1517H110.54Z" fill="#A100FF"/>
<path d="M134.772 12.4436C134.772 13.3968 134.59 14.2909 134.228 15.1262C133.865 15.9613 133.369 16.6909 132.741 17.3152C132.113 17.9393 131.379 18.4329 130.539 18.7957C129.7 19.1583 128.804 19.3399 127.85 19.3399L126.117 19.3146V15.8603L127.825 15.8857C128.365 15.8857 128.825 15.8161 129.204 15.6768C129.584 15.538 129.904 15.3478 130.166 15.1077C130.427 14.8671 130.636 14.5907 130.792 14.2787C130.949 13.9667 131.073 13.6377 131.166 13.2919C131.031 13.5113 130.837 13.6906 130.584 13.8295C130.331 13.9688 130.05 14.0825 129.742 14.1714C129.434 14.2597 129.114 14.3208 128.78 14.3546C128.447 14.3882 128.137 14.4051 127.85 14.4051C126.897 14.4051 126.001 14.2406 125.161 13.9117C124.322 13.5827 123.588 13.1126 122.96 12.5009C122.331 11.8893 121.835 11.1404 121.473 10.2549C121.11 9.36901 120.929 8.36946 120.929 7.25593C120.929 6.23549 121.11 5.28645 121.473 4.4088C121.835 3.53168 122.331 2.77249 122.96 2.13124C123.588 1.49026 124.322 0.988373 125.161 0.625573C126.001 0.263036 126.897 0.0813599 127.85 0.0813599C128.289 0.0813599 128.723 0.136364 129.154 0.245839C129.584 0.355578 130.001 0.507368 130.406 0.701461C130.811 0.895554 131.197 1.12349 131.564 1.38475C131.931 1.64627 132.275 1.92895 132.595 2.23252L133.936 0.625573H134.771V12.4438L134.772 12.4436ZM131.292 7.25568C131.292 6.7834 131.202 6.32566 131.02 5.88274C130.839 5.44008 130.592 5.04767 130.28 4.70629C129.968 4.36438 129.603 4.09042 129.186 3.88363C128.768 3.67711 128.323 3.57372 127.85 3.57372C127.378 3.57372 126.933 3.65411 126.515 3.81409C126.098 3.97433 125.735 4.21074 125.427 4.52276C125.119 4.83506 124.877 5.22086 124.7 5.68045C124.523 6.14029 124.434 6.66572 124.434 7.25593C124.434 7.82129 124.523 8.32953 124.7 8.78092C124.877 9.23204 125.119 9.61811 125.427 9.9386C125.735 10.2594 126.098 10.5061 126.515 10.679C126.933 10.8517 127.378 10.9381 127.85 10.9381C128.323 10.9381 128.768 10.8348 129.186 10.6282C129.603 10.4214 129.968 10.1475 130.28 9.80559C130.592 9.46421 130.839 9.07179 131.02 8.62913C131.202 8.18594 131.292 7.72873 131.292 7.25619V7.25568Z" fill="#A100FF"/>
<path d="M150.5 7.25563C150.5 8.26787 150.318 9.21083 149.956 10.0835C149.593 10.9569 149.1 11.7116 148.475 12.3486C147.851 12.9853 147.119 13.4875 146.28 13.854C145.44 14.2213 144.54 14.4045 143.578 14.4045C142.625 14.4045 141.729 14.2213 140.89 13.854C140.05 13.4872 139.316 12.9853 138.688 12.3486C138.059 11.7116 137.563 10.9566 137.201 10.0835C136.838 9.21057 136.657 8.26787 136.657 7.25563C136.657 6.22646 136.838 5.27344 137.201 4.39605C137.563 3.51893 138.059 2.7616 138.688 2.12485C139.316 1.48783 140.05 0.988052 140.89 0.625251C141.729 0.262715 142.625 0.0810547 143.578 0.0810547C144.54 0.0810547 145.44 0.251875 146.28 0.593521C147.119 0.935431 147.851 1.42041 148.475 2.04896C149.099 2.67725 149.593 3.4322 149.956 4.31355C150.318 5.19516 150.5 6.17595 150.5 7.25563ZM147.02 7.25563C147.02 6.699 146.93 6.19472 146.748 5.7436C146.567 5.29222 146.32 4.90404 146.008 4.57958C145.696 4.25459 145.331 4.00575 144.914 3.83281C144.496 3.66014 144.051 3.57367 143.579 3.57367C143.106 3.57367 142.661 3.66014 142.243 3.83281C141.826 4.00575 141.463 4.25486 141.155 4.57958C140.847 4.9043 140.605 5.29222 140.428 5.7436C140.251 6.19472 140.162 6.69873 140.162 7.25563C140.162 7.77894 140.251 8.26364 140.428 8.7108C140.605 9.15795 140.847 9.54587 141.155 9.87482C141.463 10.2038 141.826 10.4632 142.243 10.653C142.661 10.8426 143.106 10.9376 143.579 10.9376C144.051 10.9376 144.496 10.849 144.914 10.6718C145.331 10.4947 145.696 10.2461 146.008 9.92534C146.32 9.60484 146.567 9.21665 146.748 8.7613C146.93 8.30568 147.02 7.80406 147.02 7.25563Z" fill="#A100FF"/>
<path d="M0.655485 13.9962C0.551828 13.8923 0.5 13.7543 0.5 13.5816V1.24558C0.5 1.0729 0.551828 0.934606 0.655485 0.830948C0.759143 0.727291 0.897443 0.675459 1.07012 0.675459H1.51066C1.68333 0.675459 1.82163 0.727291 1.92529 0.830948C2.02895 0.93487 2.08077 1.0729 2.08077 1.24558V2.15285C2.51259 1.59992 3.02665 1.17232 3.62294 0.869813C4.21897 0.567302 4.94034 0.416321 5.78705 0.416321C7.72217 0.416321 9.10435 1.22812 9.93361 2.85226C10.3311 2.10921 10.9141 1.51769 11.6828 1.07714C12.4518 0.636599 13.3371 0.416321 14.3393 0.416321C15.255 0.416321 16.0801 0.627857 16.8144 1.05095C17.5487 1.47457 18.1273 2.10075 18.5507 2.92975C18.974 3.75927 19.1856 4.79583 19.1856 6.03999V13.5816C19.1856 13.7543 19.1337 13.8926 19.0301 13.9962C18.9264 14.0999 18.7881 14.1517 18.6154 14.1517H18.1746C18.002 14.1517 17.8637 14.0999 17.76 13.9962C17.6563 13.8923 17.6045 13.7543 17.6045 13.5816V6.29914C17.6045 5.15891 17.4403 4.27332 17.1121 3.64265C16.784 3.01198 16.3519 2.56721 15.8164 2.30806C15.281 2.04892 14.7021 1.91908 14.0802 1.91908C13.5619 1.91908 13.0349 2.04866 12.4991 2.30806C11.9637 2.56694 11.5186 3.01198 11.1645 3.64265C10.8105 4.27332 10.6333 5.15865 10.6333 6.29914V13.5816C10.6333 13.7543 10.5815 13.8926 10.4778 13.9962C10.3742 14.0999 10.2359 14.1517 10.0632 14.1517H9.62264C9.44997 14.1517 9.31166 14.0999 9.208 13.9962C9.10435 13.8923 9.05252 13.7543 9.05252 13.5816V6.29914C9.05252 5.15891 8.87985 4.27332 8.53424 3.64265C8.18863 3.01198 7.74808 2.56721 7.21234 2.30806C6.67687 2.04892 6.11521 1.91908 5.52791 1.91908C5.00962 1.91908 4.48261 2.04866 3.94687 2.30806C3.4114 2.56694 2.96635 3.01198 2.61228 3.64265C2.25821 4.27332 2.08104 5.15018 2.08104 6.27322V13.5816C2.08104 13.7543 2.02921 13.8926 1.92555 13.9962C1.8219 14.0999 1.6836 14.1517 1.51092 14.1517H1.07038C0.897705 14.1517 0.759409 14.0999 0.655752 13.9962H0.655485Z" fill="white"/>
<path d="M24.2631 12.7653C23.2783 11.6682 22.7167 10.2297 22.5787 8.4503C22.5615 8.19115 22.5527 7.84553 22.5527 7.41371C22.5527 6.98189 22.5615 6.63629 22.5787 6.37689C22.6651 5.20228 22.9415 4.16543 23.4079 3.26689C23.8744 2.36861 24.518 1.66867 25.3385 1.16783C26.1591 0.666997 27.1311 0.416321 28.2542 0.416321C29.4637 0.416321 30.4915 0.684181 31.3382 1.21966C32.1849 1.75513 32.837 2.5241 33.295 3.5263C33.7528 4.52823 33.9818 5.72055 33.9818 7.10248V7.49146C33.9818 7.66413 33.9257 7.80243 33.8133 7.90583C33.7009 8.00975 33.5584 8.06157 33.3857 8.06157H24.1594V8.32045C24.1941 9.09788 24.3755 9.83644 24.7036 10.5364C25.032 11.2361 25.4985 11.8062 26.103 12.247C26.7078 12.6875 27.4249 12.9078 28.2542 12.9078C28.9972 12.9078 29.6149 12.7954 30.107 12.5709C30.5994 12.3462 30.9926 12.1002 31.2861 11.8324C31.5796 11.5645 31.77 11.3617 31.8562 11.2231C32.0117 10.9986 32.1326 10.8648 32.2191 10.8215C32.3055 10.7781 32.4436 10.7567 32.6337 10.7567H33.0483C33.2038 10.7567 33.3376 10.8043 33.45 10.8992C33.5624 10.9941 33.6097 11.1195 33.5925 11.2749C33.5753 11.5169 33.4413 11.8149 33.1908 12.1693C32.9404 12.5233 32.5861 12.8732 32.1281 13.2188C31.6701 13.5644 31.1132 13.8495 30.4566 14.074C29.8 14.2985 29.0657 14.4108 28.2536 14.4108C26.5777 14.4108 25.2473 13.8622 24.2626 12.765L24.2631 12.7653ZM32.4007 6.6101V6.50645C32.4007 5.64256 32.2365 4.86512 31.9083 4.17416C31.5802 3.48294 31.105 2.93451 30.4831 2.52834C29.8608 2.12244 29.1181 1.91908 28.2542 1.91908C27.3903 1.91908 26.6517 2.12244 26.0382 2.52834C25.425 2.93424 24.9585 3.48267 24.6388 4.17416C24.3191 4.86512 24.1594 5.64282 24.1594 6.50645V6.6101H32.401H32.4007Z" fill="white"/>
<path d="M39.5397 13.6463C38.7708 13.1365 38.2007 12.4411 37.8291 11.56C37.4576 10.6789 37.272 9.69388 37.272 8.60548V1.24529C37.272 1.07261 37.3238 0.934318 37.4275 0.83066C37.5311 0.727003 37.6694 0.675171 37.8421 0.675171H38.2829C38.4556 0.675171 38.5939 0.727003 38.6975 0.83066C38.8012 0.934582 38.853 1.07261 38.853 1.24529V8.47591C38.853 11.4304 40.1403 12.9078 42.7148 12.9078C43.9415 12.9078 44.9262 12.5148 45.669 11.7284C46.4121 10.9423 46.7833 9.85836 46.7833 8.47591V1.24529C46.7833 1.07261 46.8351 0.934318 46.9388 0.83066C47.0425 0.727003 47.1808 0.675171 47.3534 0.675171H47.794C47.9669 0.675171 48.105 0.727003 48.2086 0.83066C48.3123 0.934582 48.3641 1.07261 48.3641 1.24529V13.5813C48.3641 13.754 48.3123 13.8923 48.2086 13.9959C48.105 14.0996 47.9667 14.1514 47.794 14.1514H47.3534C47.1808 14.1514 47.0425 14.0996 46.9388 13.9959C46.8351 13.892 46.7833 13.754 46.7833 13.5813V12.3633C46.3169 12.9681 45.7597 13.4604 45.1118 13.8407C44.464 14.221 43.5784 14.4108 42.4554 14.4108C41.2805 14.4108 40.3087 14.1559 39.54 13.6461L39.5397 13.6463Z" fill="white"/>
</svg>
